<mxfile host="app.diagrams.net" modified="2023-08-27T03:06:44.446Z" agent="Mozilla/5.0 (Macintosh; Intel Mac OS X 10_15_7) AppleWebKit/537.36 (KHTML, like Gecko) Chrome/116.0.0.0 Safari/537.36" etag="SLd6VwAGHpDFDN8HaWDo" version="21.6.9" type="github">
  <diagram id="3228e29e-7158-1315-38df-8450db1d8a1d" name="Page-1">
    <mxGraphModel dx="625" dy="557" grid="0" gridSize="10" guides="1" tooltips="1" connect="1" arrows="1" fold="1" page="1" pageScale="1" pageWidth="600" pageHeight="200" background="#EFF1F3" math="0" shadow="0">
      <root>
        <mxCell id="0" />
        <mxCell id="1" parent="0" />
        <mxCell id="aMB2SkQLuwcF9kNnRCJI-1" value="&lt;div style=&quot;font-family: Menlo, Monaco, &amp;quot;Courier New&amp;quot;, monospace; font-size: 16px; line-height: 24px;&quot;&gt;&lt;div style=&quot;&quot;&gt;&lt;br&gt;&lt;/div&gt;&lt;/div&gt;" style="rounded=1;whiteSpace=wrap;html=1;strokeWidth=5;fontSize=30;strokeColor=#67AB9F;fillColor=#67AB9F;align=left;" parent="1" vertex="1">
          <mxGeometry x="25" y="226" width="173" height="147" as="geometry" />
        </mxCell>
        <mxCell id="CNL9ZWAu0hiXVesVUDJu-2" value="&lt;div style=&quot;font-family: Menlo, Monaco, &amp;quot;Courier New&amp;quot;, monospace; font-size: 16px; line-height: 24px;&quot;&gt;&lt;div style=&quot;&quot;&gt;&lt;br&gt;&lt;/div&gt;&lt;/div&gt;" style="rounded=1;whiteSpace=wrap;html=1;strokeWidth=5;fontSize=30;strokeColor=#FDD276;fillColor=#FDD276;align=left;" parent="1" vertex="1">
          <mxGeometry x="402" y="226" width="173" height="147" as="geometry" />
        </mxCell>
        <mxCell id="CNL9ZWAu0hiXVesVUDJu-3" value="&lt;div style=&quot;font-family: Menlo, Monaco, &amp;quot;Courier New&amp;quot;, monospace; font-size: 16px; line-height: 24px;&quot;&gt;01010110&lt;/div&gt;&lt;div style=&quot;font-family: Menlo, Monaco, &amp;quot;Courier New&amp;quot;, monospace; font-size: 16px; line-height: 24px;&quot;&gt;11010010&lt;/div&gt;&lt;div style=&quot;font-family: Menlo, Monaco, &amp;quot;Courier New&amp;quot;, monospace; font-size: 16px; line-height: 24px;&quot;&gt;10010111&lt;/div&gt;&lt;span style=&quot;font-family: Menlo, Monaco, &amp;quot;Courier New&amp;quot;, monospace; font-size: 16px;&quot;&gt;10010111&lt;/span&gt;" style="text;html=1;strokeColor=none;fillColor=none;align=left;verticalAlign=middle;whiteSpace=wrap;rounded=0;labelBackgroundColor=none;fontColor=#000000;" parent="1" vertex="1">
          <mxGeometry x="448" y="242.5" width="102" height="114" as="geometry" />
        </mxCell>
        <mxCell id="CNL9ZWAu0hiXVesVUDJu-5" value="" style="endArrow=classic;html=1;rounded=0;fontColor=#000000;strokeWidth=5;strokeColor=#4A919B;" parent="1" edge="1">
          <mxGeometry width="50" height="50" relative="1" as="geometry">
            <mxPoint x="234" y="279.29" as="sourcePoint" />
            <mxPoint x="369" y="279.29" as="targetPoint" />
          </mxGeometry>
        </mxCell>
        <mxCell id="CNL9ZWAu0hiXVesVUDJu-6" value="" style="endArrow=none;html=1;rounded=0;fontColor=#000000;strokeWidth=5;startArrow=classic;startFill=1;endFill=0;strokeColor=#FDD276;" parent="1" edge="1">
          <mxGeometry width="50" height="50" relative="1" as="geometry">
            <mxPoint x="234" y="332.29" as="sourcePoint" />
            <mxPoint x="369" y="332.29" as="targetPoint" />
          </mxGeometry>
        </mxCell>
        <mxCell id="CNL9ZWAu0hiXVesVUDJu-7" value="&lt;font style=&quot;font-size: 20px;&quot;&gt;序列化&lt;/font&gt;" style="text;html=1;strokeColor=none;fillColor=none;align=center;verticalAlign=middle;whiteSpace=wrap;rounded=0;labelBackgroundColor=none;fontColor=#000000;" parent="1" vertex="1">
          <mxGeometry x="266" y="243" width="72" height="30" as="geometry" />
        </mxCell>
        <mxCell id="CNL9ZWAu0hiXVesVUDJu-8" value="&lt;font style=&quot;font-size: 20px;&quot;&gt;反序列化&lt;/font&gt;" style="text;html=1;strokeColor=none;fillColor=none;align=center;verticalAlign=middle;whiteSpace=wrap;rounded=0;labelBackgroundColor=none;fontColor=#000000;" parent="1" vertex="1">
          <mxGeometry x="255" y="342" width="94" height="30" as="geometry" />
        </mxCell>
        <mxCell id="ZSYGBcrlqsScMK97Dlac-1" value="&lt;div style=&quot;font-family: Menlo, Monaco, &amp;quot;Courier New&amp;quot;, monospace; line-height: 24px;&quot;&gt;&lt;div style=&quot;&quot;&gt;&lt;span style=&quot;background-color: initial; font-family: menlo, monospace, Tahoma, 微软雅黑, 幼圆; font-weight: bold;&quot;&gt;&lt;font style=&quot;font-size: 24px;&quot; color=&quot;#ffffff&quot;&gt;1&lt;/font&gt;&lt;/span&gt;&lt;br&gt;&lt;/div&gt;&lt;/div&gt;" style="text;html=1;strokeColor=none;fillColor=none;align=left;verticalAlign=middle;whiteSpace=wrap;rounded=0;labelBackgroundColor=none;fontColor=#000000;" vertex="1" parent="1">
          <mxGeometry x="67" y="287" width="53" height="33" as="geometry" />
        </mxCell>
        <mxCell id="ZSYGBcrlqsScMK97Dlac-2" value="&lt;div style=&quot;font-family: Menlo, Monaco, &amp;quot;Courier New&amp;quot;, monospace; font-size: 20px; line-height: 24px;&quot;&gt;&lt;div style=&quot;&quot;&gt;&lt;span style=&quot;font-family: menlo, monospace, Tahoma, 微软雅黑, 幼圆; color: rgb(26, 26, 26); background-color: initial;&quot;&gt;&amp;nbsp; &amp;nbsp; &amp;nbsp; &amp;nbsp;&amp;nbsp;&lt;/span&gt;&lt;span style=&quot;font-family: menlo, monospace, Tahoma, 微软雅黑, 幼圆; color: rgb(26, 26, 26); background-color: initial; box-sizing: border-box; font-weight: bold;&quot; class=&quot;json_string&quot;&gt;唱&lt;/span&gt;&lt;br&gt;&lt;/div&gt;&lt;font style=&quot;font-size: 20px;&quot; color=&quot;#1a1a1a&quot;&gt;&lt;span style=&quot;box-sizing: border-box; font-family: menlo, monospace, Tahoma, 微软雅黑, 幼圆;&quot; data-size=&quot;4&quot; data-type=&quot;array&quot;&gt;&lt;div style=&quot;&quot;&gt;&lt;span style=&quot;background-color: initial;&quot;&gt;&amp;nbsp; &amp;nbsp; &amp;nbsp; &amp;nbsp;&amp;nbsp;&lt;/span&gt;&lt;span style=&quot;background-color: initial; box-sizing: border-box; font-weight: bold;&quot; class=&quot;json_string&quot;&gt;跳&lt;/span&gt;&lt;/div&gt;&lt;div style=&quot;&quot;&gt;&lt;span style=&quot;background-color: initial;&quot;&gt;&amp;nbsp; &amp;nbsp; &amp;nbsp; &amp;nbsp;&amp;nbsp;&lt;/span&gt;&lt;span style=&quot;background-color: initial; box-sizing: border-box; font-weight: bold;&quot; class=&quot;json_string&quot;&gt;rap&lt;/span&gt;&lt;/div&gt;&lt;div style=&quot;&quot;&gt;&lt;span style=&quot;background-color: initial;&quot;&gt;&amp;nbsp; &amp;nbsp; &amp;nbsp; &amp;nbsp;&amp;nbsp;&lt;/span&gt;&lt;span style=&quot;background-color: initial; box-sizing: border-box; font-weight: bold;&quot; class=&quot;json_string&quot;&gt;篮球&lt;/span&gt;&lt;/div&gt;&lt;/span&gt;&lt;/font&gt;&lt;/div&gt;" style="text;html=1;strokeColor=none;fillColor=none;align=left;verticalAlign=middle;whiteSpace=wrap;rounded=0;labelBackgroundColor=none;fontColor=#000000;" vertex="1" parent="1">
          <mxGeometry x="17" y="220.75" width="164" height="157.5" as="geometry" />
        </mxCell>
      </root>
    </mxGraphModel>
  </diagram>
</mxfile>
